<?xml version="1.0" encoding="UTF-8"?>
<svg id="Lager_2" data-name="Lager 2" xmlns="http://www.w3.org/2000/svg" viewBox="0 0 493.51 87.66">
  <defs>
    <style>
      .cls-1 {
        fill: #fff;
      }
    </style>
  </defs>
  <g id="Lager_1-2" data-name="Lager 1">
    <path class="cls-1" d="M89.24,85.88V1.52h14.47v84.35h-14.47Z"/>
    <path class="cls-1" d="M217.89,85.88V1.52h14.47v84.35h-14.47Z"/>
    <path class="cls-1" d="M247.74,85.88V1.53h29.86c22.96,0,41.04,15.23,41.04,42.35s-18.32,41.99-41.16,41.99h-29.74ZM277.01,72.79c14.63,0,26.76-9.4,26.76-28.91s-12.01-29.26-26.65-29.26h-15.11v58.17h14.99Z"/>
    <path class="cls-1" d="M370.62,0c22.06,0,42.82,16.25,42.82,43.77s-20.76,43.89-42.82,43.89-42.7-16.25-42.7-43.89S348.56,0,370.62,0ZM370.62,74.13c14.23,0,28.23-10.08,28.23-30.36s-14-30.36-28.23-30.36-28.11,10.08-28.11,30.36,14,30.36,28.11,30.36Z"/>
    <path class="cls-1" d="M493.51,85.88l-56.51-51.57v51.77l-14.28-.2V1.52h0l56.51,51.94V1.52l14.28,11.88v72.47h0Z"/>
    <polygon class="cls-1" points="64.83 1.52 32.16 58.47 0 1.52 .61 31.26 32.15 86.21 80.75 1.52 64.83 1.52"/>
    <polygon class="cls-1" points="192.58 1.52 159.9 58.47 127.74 1.52 111.29 1.52 159.89 86.21 208.5 1.52 192.58 1.52"/>
  </g>
</svg>