<?xml version="1.0" encoding="UTF-8"?>
<svg id="Lager_2" data-name="Lager 2" xmlns="http://www.w3.org/2000/svg" viewBox="0 0 641.37 123.5">
  <defs>
    <style>
      .cls-1 {
        fill: #fff;
      }
    </style>
  </defs>
  <g id="Lager_1-2" data-name="Lager 1">
    <path class="cls-1" d="M61.75,0C27.65,0,0,27.65,0,61.75s27.65,61.75,61.75,61.75,61.75-27.65,61.75-61.75S95.85,0,61.75,0ZM58.37,104.4l-37.29-28.01v-41.61l37.29,28.12v41.5ZM102.42,75.43l-37.55,28.97v-41.5l37.55-29.08v41.61Z"/>
    <path class="cls-1" d="M237.1,103.76V19.4h14.47v84.35h-14.47Z"/>
    <path class="cls-1" d="M365.75,103.76V19.4h14.47v84.35h-14.47Z"/>
    <path class="cls-1" d="M395.6,103.76V19.41h29.86c22.96,0,41.04,15.23,41.04,42.35s-18.32,41.99-41.16,41.99h-29.74ZM424.87,90.67c14.63,0,26.76-9.4,26.76-28.91s-12.01-29.26-26.65-29.26h-15.11v58.17h14.99Z"/>
    <path class="cls-1" d="M518.48,17.88c22.06,0,42.82,16.25,42.82,43.77s-20.76,43.89-42.82,43.89-42.7-16.25-42.7-43.89,20.64-43.77,42.7-43.77ZM518.48,92.01c14.23,0,28.23-10.08,28.23-30.36s-14-30.36-28.23-30.36-28.11,10.08-28.11,30.36,14,30.36,28.11,30.36Z"/>
    <path class="cls-1" d="M641.37,103.76l-56.51-51.57v51.77l-14.28-.2V19.4h0l56.51,51.94V19.4l14.28,11.88v72.47h0Z"/>
    <polygon class="cls-1" points="212.69 19.4 180.02 76.35 147.86 19.4 148.47 49.14 180 104.09 228.61 19.4 212.69 19.4"/>
    <polygon class="cls-1" points="340.43 19.4 307.76 76.35 275.6 19.4 259.14 19.4 307.75 104.09 356.35 19.4 340.43 19.4"/>
  </g>
</svg>